<?xml version="1.0" encoding="utf-8"?>
<!-- Generator: Adobe Illustrator 26.4.1, SVG Export Plug-In . SVG Version: 6.00 Build 0)  -->
<svg version="1.0" id="katman_1" xmlns="http://www.w3.org/2000/svg" xmlns:xlink="http://www.w3.org/1999/xlink" x="0px" y="0px"
	 viewBox="0 0 1190.55 841.89" style="enable-background:new 0 0 1190.55 841.89;" xml:space="preserve">
<style type="text/css">
	.st0{clip-path:url(#SVGID_00000141429680582106682160000018105045912794111919_);}
	.st1{fill:#5582A1;}
	.st2{fill:#F49734;}
</style>
<g>
	<defs>
		<rect id="SVGID_1_" x="124.12" y="110.1" width="934.48" height="611.52"/>
	</defs>
	<clipPath id="SVGID_00000150785495286499714270000009982772242062153606_">
		<use xlink:href="#SVGID_1_"  style="overflow:visible;"/>
	</clipPath>
	<g style="clip-path:url(#SVGID_00000150785495286499714270000009982772242062153606_);">
		<path class="st1" d="M269.4,583.07c0,0-23.34,13.6,16.67,18.18c48.44,5.52,73.24,4.74,126.63-5.37c0,0,14.06,8.8,33.7,16.41
			C326.59,663.65,175.32,609.37,269.4,583.07L269.4,583.07z M254.76,516.13c0,0-26.2,19.38,13.8,23.54
			c51.78,5.37,92.67,5.78,163.4-7.81c0,0,9.74,9.9,25.16,15.37C312.42,589.52,151.21,550.51,254.76,516.13z"/>
		<path class="st2" d="M378.11,402.52c29.53,33.96-7.76,64.54-7.76,64.54s74.9-38.65,40.53-87.09
			c-32.14-45.16-56.78-67.56,76.62-144.91C487.49,235.01,278.1,287.3,378.11,402.52L378.11,402.52z"/>
		<path class="st1" d="M536.46,632.6c0,0,17.29,14.27-19.06,25.26c-69.12,20.94-287.64,27.24-348.37,0.83
			c-21.83-9.48,19.12-22.66,31.98-25.42c13.44-2.92,21.1-2.4,21.1-2.4c-24.27-17.09-156.84,33.55-67.35,48.08
			C398.89,718.55,599.75,661.2,536.46,632.6z M280.65,446.75c0,0-111.16,26.41-39.38,35.99c30.32,4.06,90.74,3.13,147.05-1.61
			c45.99-3.85,92.2-12.14,92.2-12.14s-16.2,6.98-27.97,14.95c-112.88,29.69-330.97,15.89-268.15-14.48
			C237.47,443.83,280.65,446.75,280.65,446.75L280.65,446.75z M480.05,558.22c114.75-59.59,61.67-116.89,24.64-109.18
			c-9.06,1.88-13.13,3.54-13.13,3.54s3.39-5.26,9.79-7.55c73.29-25.73,129.6,75.95-23.65,116.26
			C477.75,561.19,479.52,559.63,480.05,558.22L480.05,558.22z"/>
		<path class="st2" d="M410.87,110.1c0,0,63.55,63.6-60.27,161.32c-99.28,78.45-22.66,123.14-0.05,174.24
			c-57.98-52.3-100.48-98.34-71.99-141.16C320.44,241.57,436.5,211.05,410.87,110.1z"/>
		<path class="st1" d="M291.9,719.8c110.12,7.03,279.3-3.91,283.31-56.05c0,0-7.71,19.74-91,35.42
			c-94.02,17.71-209.97,15.63-278.73,4.27C205.43,703.5,219.55,715.11,291.9,719.8z M767.84,630.47
			c-10.37,9.01-21.36,14.06-31.2,14.06c-14.06,0-21.67-8.44-21.67-21.93c0-14.64,8.18-25.32,40.79-25.32h12.08V630.47z
			 M796.49,662.81V562.7c0-25.58-14.58-42.45-49.74-42.45c-20.52,0-38.49,5.05-53.13,11.51l4.22,17.71
			c11.51-4.22,26.41-8.18,41.05-8.18c20.26,0,28.96,8.18,28.96,25.05V579h-10.11c-49.22,0-71.41,19.06-71.41,47.82
			c0,24.74,14.64,38.81,42.19,38.81c17.71,0,30.94-7.29,43.29-18.02l2.24,15.21H796.49z M892.17,662.81h-35.73L813.42,522.8h31.2
			l26.72,86.05l5.94,25.84c13.49-37.4,23.02-75.37,27.82-111.89h30.37C927.33,568.9,912.7,619.48,892.17,662.81L892.17,662.81z
			 M1029.38,630.47c-10.42,9.01-21.41,14.06-31.25,14.06c-14.06,0-21.67-8.44-21.67-21.93c0-14.64,8.18-25.32,40.79-25.32h12.08
			L1029.38,630.47L1029.38,630.47z M1058.03,662.81V562.7c0-25.58-14.64-42.45-49.8-42.45c-20.52,0-38.55,5.05-53.18,11.51
			l4.22,17.71c11.51-4.22,26.46-8.18,41.05-8.18c20.26,0,28.96,8.18,28.96,25.05V579h-10.11c-49.22,0-71.41,19.06-71.41,47.82
			c0,24.74,14.64,38.81,42.19,38.81c17.71,0,30.94-7.29,43.34-18.02l2.24,15.21H1058.03z M654.86,686.62
			c-8.18,11.93-21.36,21.41-35.84,26.72l-14.17-16.67c10.99-5.68,20.42-14.74,24.79-23.23c3.8-7.55,5.37-17.29,5.37-40.53V473h30.47
			v157.67C665.48,661.77,663.03,674.33,654.86,686.62L654.86,686.62z"/>
	</g>
</g>
</svg>
